# Blender 3.3.1
# www.blender.org
mtllib container.mtl
o container
v 0.000000 -0.023468 -0.030000
v -0.003548 -0.023468 -0.029789
v 0.000000 -0.023468 0.000000
v 0.003548 -0.023468 -0.029789
v 0.013699 -0.023468 -0.026690
v 0.010446 -0.023468 -0.028123
v 0.007047 -0.023468 -0.029161
v 0.022135 -0.023468 -0.020249
v 0.019585 -0.023468 -0.022725
v 0.016759 -0.023468 -0.024882
v 0.027801 -0.023468 -0.011275
v 0.026272 -0.023468 -0.014484
v 0.024375 -0.023468 -0.017489
v 0.029987 -0.023468 -0.000889
v 0.029671 -0.023468 -0.004429
v 0.028939 -0.023468 -0.007908
v 0.028420 -0.023468 0.009608
v 0.029357 -0.023468 0.006179
v 0.029881 -0.023468 0.002664
v 0.023296 -0.023468 0.018903
v 0.025368 -0.023468 0.016015
v 0.027084 -0.023468 0.012902
v 0.015256 -0.023468 0.025831
v 0.018204 -0.023468 0.023846
v 0.020897 -0.023468 0.021525
v 0.005307 -0.023468 0.029527
v 0.008762 -0.023468 0.028692
v 0.012094 -0.023468 0.027454
v -0.005307 -0.023468 0.029527
v -0.001777 -0.023468 0.029947
v 0.001777 -0.023468 0.029947
v -0.015256 -0.023468 0.025831
v -0.012094 -0.023468 0.027454
v -0.008762 -0.023468 0.028692
v -0.023296 -0.023468 0.018903
v -0.020897 -0.023468 0.021525
v -0.018204 -0.023468 0.023846
v -0.028420 -0.023468 0.009608
v -0.027084 -0.023468 0.012902
v -0.025368 -0.023468 0.016015
v -0.029987 -0.023468 -0.000889
v -0.029881 -0.023468 0.002664
v -0.029357 -0.023468 0.006179
v -0.027801 -0.023468 -0.011275
v -0.028939 -0.023468 -0.007908
v -0.029671 -0.023468 -0.004429
v -0.022135 -0.023468 -0.020249
v -0.024375 -0.023468 -0.017489
v -0.026272 -0.023468 -0.014484
v -0.013699 -0.023468 -0.026690
v -0.016759 -0.023468 -0.024882
v -0.019585 -0.023468 -0.022725
v -0.007047 -0.023468 -0.029161
v -0.010446 -0.023468 -0.028123
v 0.000000 0.026532 -0.030000
v 0.003548 0.026532 -0.029789
v 0.007047 0.026532 -0.029161
v 0.010446 0.026532 -0.028123
v 0.013699 0.026532 -0.026690
v 0.016759 0.026532 -0.024882
v 0.019585 0.026532 -0.022725
v 0.022135 0.026532 -0.020249
v 0.024375 0.026532 -0.017489
v 0.026272 0.026532 -0.014484
v 0.027801 0.026532 -0.011275
v 0.028939 0.026532 -0.007908
v 0.029671 0.026532 -0.004429
v 0.029987 0.026532 -0.000889
v 0.029881 0.026532 0.002664
v 0.029357 0.026532 0.006179
v 0.028420 0.026532 0.009608
v 0.027084 0.026532 0.012902
v 0.025368 0.026532 0.016015
v 0.023296 0.026532 0.018903
v 0.020897 0.026532 0.021525
v 0.018204 0.026532 0.023846
v 0.015256 0.026532 0.025831
v 0.012094 0.026532 0.027454
v 0.008762 0.026532 0.028692
v 0.005307 0.026532 0.029527
v 0.001777 0.026532 0.029947
v -0.001777 0.026532 0.029947
v -0.005307 0.026532 0.029527
v -0.008762 0.026532 0.028692
v -0.012094 0.026532 0.027454
v -0.015256 0.026532 0.025831
v -0.018204 0.026532 0.023846
v -0.020897 0.026532 0.021525
v -0.023296 0.026532 0.018903
v -0.025368 0.026532 0.016015
v -0.027084 0.026532 0.012902
v -0.028420 0.026532 0.009608
v -0.029357 0.026532 0.006179
v -0.029881 0.026532 0.002664
v -0.029987 0.026532 -0.000889
v -0.029671 0.026532 -0.004429
v -0.028939 0.026532 -0.007908
v -0.027801 0.026532 -0.011275
v -0.026272 0.026532 -0.014484
v -0.024375 0.026532 -0.017489
v -0.022135 0.026532 -0.020249
v -0.019585 0.026532 -0.022725
v -0.016759 0.026532 -0.024882
v -0.013699 0.026532 -0.026690
v -0.010446 0.026532 -0.028123
v -0.007047 0.026532 -0.029161
v -0.003548 0.026532 -0.029789
v 0.025750 0.026532 0.023705
v 0.028202 0.026532 0.020728
v 0.030311 0.026532 0.017500
v 0.032052 0.026532 0.014059
v 0.033404 0.026532 0.010448
v 0.034351 0.026532 0.006710
v 0.034880 0.026532 0.002890
v 0.034987 0.026532 -0.000964
v 0.034668 0.026532 -0.004807
v 0.033929 0.026532 -0.008592
v 0.032778 0.026532 -0.012272
v 0.031229 0.026532 -0.015804
v 0.029301 0.026532 -0.019143
v -0.025750 0.026532 0.023705
v -0.022986 0.026532 0.026394
v -0.019943 0.026532 0.028762
v -0.016658 0.026532 0.030782
v -0.013171 0.026532 0.032427
v -0.009524 0.026532 0.033679
v -0.005761 0.026532 0.034523
v -0.001928 0.026532 0.034947
v 0.001928 0.026532 0.034947
v 0.005761 0.026532 0.034523
v 0.009524 0.026532 0.033679
v 0.013171 0.026532 0.032427
v 0.016658 0.026532 0.030782
v 0.019943 0.026532 0.028762
v 0.022986 0.026532 0.026394
v -0.024405 0.026532 -0.025087
v -0.027017 0.026532 -0.022250
v -0.029301 0.026532 -0.019143
v -0.031229 0.026532 -0.015804
v -0.032778 0.026532 -0.012272
v -0.033929 0.026532 -0.008592
v -0.034668 0.026532 -0.004807
v -0.034987 0.026532 -0.000964
v -0.034880 0.026532 0.002890
v -0.034351 0.026532 0.006710
v -0.033404 0.026532 0.010448
v -0.032052 0.026532 0.014059
v -0.030311 0.026532 0.017500
v -0.028202 0.026532 0.020728
v 0.027017 0.026532 -0.022250
v 0.024405 0.026532 -0.025087
v 0.021497 0.026532 -0.027620
v 0.018329 0.026532 -0.029817
v 0.014937 0.026532 -0.031653
v 0.011364 0.026532 -0.033104
v 0.007654 0.026532 -0.034153
v 0.003850 0.026532 -0.034788
v 0.000000 0.026532 -0.035000
v -0.003850 0.026532 -0.034788
v -0.007654 0.026532 -0.034153
v -0.011364 0.026532 -0.033104
v -0.014937 0.026532 -0.031653
v -0.018329 0.026532 -0.029817
v -0.021497 0.026532 -0.027620
v 0.000000 -0.028468 -0.035000
v 0.003850 -0.028468 -0.034788
v 0.007654 -0.028468 -0.034153
v 0.011364 -0.028468 -0.033104
v 0.014937 -0.028468 -0.031653
v 0.018329 -0.028468 -0.029817
v 0.021497 -0.028468 -0.027620
v 0.024405 -0.028468 -0.025087
v 0.027017 -0.028468 -0.022250
v 0.029301 -0.028468 -0.019143
v 0.031229 -0.028468 -0.015804
v 0.032778 -0.028468 -0.012272
v 0.033929 -0.028468 -0.008592
v 0.034668 -0.028468 -0.004807
v 0.034987 -0.028468 -0.000964
v 0.034880 -0.028468 0.002890
v 0.034351 -0.028468 0.006710
v 0.033404 -0.028468 0.010448
v 0.032052 -0.028468 0.014059
v 0.030311 -0.028468 0.017500
v 0.028202 -0.028468 0.020728
v 0.025750 -0.028468 0.023705
v 0.022986 -0.028468 0.026394
v 0.019943 -0.028468 0.028762
v 0.016658 -0.028468 0.030782
v 0.013171 -0.028468 0.032427
v 0.009524 -0.028468 0.033679
v 0.005761 -0.028468 0.034523
v 0.001928 -0.028468 0.034947
v -0.001928 -0.028468 0.034947
v -0.005761 -0.028468 0.034523
v -0.009524 -0.028468 0.033679
v -0.013171 -0.028468 0.032427
v -0.016658 -0.028468 0.030782
v -0.019943 -0.028468 0.028762
v -0.022986 -0.028468 0.026394
v -0.025750 -0.028468 0.023705
v -0.028202 -0.028468 0.020728
v -0.030311 -0.028468 0.017500
v -0.032052 -0.028468 0.014059
v -0.033404 -0.028468 0.010448
v -0.034351 -0.028468 0.006710
v -0.034880 -0.028468 0.002890
v -0.034987 -0.028468 -0.000964
v -0.034668 -0.028468 -0.004807
v -0.033929 -0.028468 -0.008592
v -0.032778 -0.028468 -0.012272
v -0.031229 -0.028468 -0.015804
v -0.029301 -0.028468 -0.019143
v -0.027017 -0.028468 -0.022250
v -0.024405 -0.028468 -0.025087
v -0.021497 -0.028468 -0.027620
v -0.018329 -0.028468 -0.029817
v -0.014937 -0.028468 -0.031653
v -0.011364 -0.028468 -0.033104
v -0.007654 -0.028468 -0.034153
v -0.003850 -0.028468 -0.034788
v 0.000000 -0.028468 0.000000
vn -0.0000 1.0000 -0.0000
vn -0.0592 -0.0000 0.9982
vn -0.1769 -0.0000 0.9842
vn -0.2921 -0.0000 0.9564
vn -0.4031 -0.0000 0.9151
vn -0.5085 -0.0000 0.8610
vn -0.6068 -0.0000 0.7949
vn -0.6966 -0.0000 0.7175
vn -0.7765 -0.0000 0.6301
vn -0.8456 -0.0000 0.5338
vn -0.9028 -0.0000 0.4301
vn -0.9473 -0.0000 0.3203
vn -0.9786 -0.0000 0.2060
vn -0.9960 -0.0000 0.0888
vn -0.9996 -0.0000 -0.0296
vn -0.9890 -0.0000 -0.1476
vn -0.9646 -0.0000 -0.2636
vn -0.9267 -0.0000 -0.3758
vn -0.8757 -0.0000 -0.4828
vn -0.8125 -0.0000 -0.5830
vn -0.7378 -0.0000 -0.6750
vn -0.6528 -0.0000 -0.7575
vn -0.5586 -0.0000 -0.8294
vn -0.4566 -0.0000 -0.8897
vn -0.3482 -0.0000 -0.9374
vn -0.2349 -0.0000 -0.9720
vn -0.1183 -0.0000 -0.9930
vn -0.0000 -0.0000 -1.0000
vn 0.1183 -0.0000 -0.9930
vn 0.2349 -0.0000 -0.9720
vn 0.3482 -0.0000 -0.9374
vn 0.4566 -0.0000 -0.8897
vn 0.5586 -0.0000 -0.8294
vn 0.6528 -0.0000 -0.7575
vn 0.7378 -0.0000 -0.6750
vn 0.8125 -0.0000 -0.5830
vn 0.8757 -0.0000 -0.4828
vn 0.9267 -0.0000 -0.3758
vn 0.9646 -0.0000 -0.2636
vn 0.9890 -0.0000 -0.1476
vn 0.9996 -0.0000 -0.0296
vn 0.9960 -0.0000 0.0888
vn 0.9786 -0.0000 0.2060
vn 0.9473 -0.0000 0.3203
vn 0.9028 -0.0000 0.4301
vn 0.8456 -0.0000 0.5338
vn 0.7765 -0.0000 0.6301
vn 0.6966 -0.0000 0.7175
vn 0.6068 -0.0000 0.7949
vn 0.5085 -0.0000 0.8610
vn 0.4031 -0.0000 0.9151
vn 0.2921 -0.0000 0.9564
vn 0.1769 -0.0000 0.9842
vn 0.0592 -0.0000 0.9982
vn 0.0551 -0.0000 -0.9985
vn 0.1646 -0.0000 -0.9864
vn 0.2721 -0.0000 -0.9623
vn 0.3763 -0.0000 -0.9265
vn 0.4759 -0.0000 -0.8795
vn 0.5698 -0.0000 -0.8218
vn 0.6568 -0.0000 -0.7541
vn 0.7357 -0.0000 -0.6773
vn 0.8058 -0.0000 -0.5922
vn 0.8660 -0.0000 -0.5000
vn 0.9158 -0.0000 -0.4017
vn 0.9544 -0.0000 -0.2985
vn 0.9815 -0.0000 -0.1917
vn 0.9966 -0.0000 -0.0826
vn 0.9996 -0.0000 0.0276
vn 0.9905 -0.0000 0.1374
vn 0.9694 -0.0000 0.2455
vn 0.9365 -0.0000 0.3506
vn 0.8923 -0.0000 0.4515
vn 0.8372 -0.0000 0.5469
vn 0.7719 -0.0000 0.6357
vn 0.6973 -0.0000 0.7168
vn 0.6142 -0.0000 0.7891
vn 0.5237 -0.0000 0.8519
vn 0.4268 -0.0000 0.9044
vn 0.3247 -0.0000 0.9458
vn 0.2187 -0.0000 0.9758
vn 0.1100 -0.0000 0.9939
vn -0.0000 -0.0000 1.0000
vn -0.1100 -0.0000 0.9939
vn -0.2187 -0.0000 0.9758
vn -0.3247 -0.0000 0.9458
vn -0.4268 -0.0000 0.9044
vn -0.5237 -0.0000 0.8519
vn -0.6142 -0.0000 0.7891
vn -0.6973 -0.0000 0.7168
vn -0.7719 -0.0000 0.6357
vn -0.8372 -0.0000 0.5469
vn -0.8923 -0.0000 0.4515
vn -0.9365 -0.0000 0.3506
vn -0.9694 -0.0000 0.2455
vn -0.9905 -0.0000 0.1374
vn -0.9996 -0.0000 0.0276
vn -0.9966 -0.0000 -0.0826
vn -0.9815 -0.0000 -0.1917
vn -0.9544 -0.0000 -0.2985
vn -0.9158 -0.0000 -0.4017
vn -0.8660 -0.0000 -0.5000
vn -0.8058 -0.0000 -0.5922
vn -0.7357 -0.0000 -0.6773
vn -0.6568 -0.0000 -0.7541
vn -0.5698 -0.0000 -0.8218
vn -0.4759 -0.0000 -0.8795
vn -0.3763 -0.0000 -0.9265
vn -0.2721 -0.0000 -0.9623
vn -0.1646 -0.0000 -0.9864
vn -0.0551 -0.0000 -0.9985
vn -0.0000 -1.0000 -0.0000
s 0
f 1//1 2//1 3//1
f 1//1 3//1 4//1
f 5//1 6//1 3//1
f 3//1 6//1 7//1
f 3//1 7//1 4//1
f 8//1 9//1 3//1
f 3//1 9//1 10//1
f 3//1 10//1 5//1
f 11//1 12//1 3//1
f 3//1 12//1 13//1
f 3//1 13//1 8//1
f 14//1 15//1 3//1
f 3//1 15//1 16//1
f 3//1 16//1 11//1
f 17//1 18//1 3//1
f 3//1 18//1 19//1
f 3//1 19//1 14//1
f 20//1 21//1 3//1
f 3//1 21//1 22//1
f 3//1 22//1 17//1
f 23//1 24//1 3//1
f 3//1 24//1 25//1
f 3//1 25//1 20//1
f 26//1 27//1 3//1
f 3//1 27//1 28//1
f 3//1 28//1 23//1
f 29//1 30//1 3//1
f 3//1 30//1 31//1
f 3//1 31//1 26//1
f 32//1 33//1 3//1
f 3//1 33//1 34//1
f 3//1 34//1 29//1
f 35//1 36//1 3//1
f 3//1 36//1 37//1
f 3//1 37//1 32//1
f 38//1 39//1 3//1
f 3//1 39//1 40//1
f 3//1 40//1 35//1
f 41//1 42//1 3//1
f 3//1 42//1 43//1
f 3//1 43//1 38//1
f 44//1 45//1 3//1
f 3//1 45//1 46//1
f 3//1 46//1 41//1
f 47//1 48//1 3//1
f 3//1 48//1 49//1
f 3//1 49//1 44//1
f 50//1 51//1 3//1
f 3//1 51//1 52//1
f 3//1 52//1 47//1
f 2//1 53//1 3//1
f 3//1 53//1 54//1
f 3//1 54//1 50//1
f 55//2 1//2 56//2
f 56//2 1//2 4//2
f 56//3 4//3 57//3
f 57//3 4//3 7//3
f 57//4 7//4 58//4
f 58//4 7//4 6//4
f 58//5 6//5 59//5
f 59//5 6//5 5//5
f 59//6 5//6 60//6
f 60//6 5//6 10//6
f 60//7 10//7 61//7
f 61//7 10//7 9//7
f 61//8 9//8 62//8
f 62//8 9//8 8//8
f 62//9 8//9 63//9
f 63//9 8//9 13//9
f 63//10 13//10 64//10
f 64//10 13//10 12//10
f 64//11 12//11 65//11
f 65//11 12//11 11//11
f 65//12 11//12 66//12
f 66//12 11//12 16//12
f 66//13 16//13 67//13
f 67//13 16//13 15//13
f 67//14 15//14 68//14
f 68//14 15//14 14//14
f 68//15 14//15 69//15
f 69//15 14//15 19//15
f 69//16 19//16 70//16
f 70//16 19//16 18//16
f 70//17 18//17 71//17
f 71//17 18//17 17//17
f 71//18 17//18 72//18
f 72//18 17//18 22//18
f 72//19 22//19 73//19
f 73//19 22//19 21//19
f 73//20 21//20 74//20
f 74//20 21//20 20//20
f 74//21 20//21 75//21
f 75//21 20//21 25//21
f 75//22 25//22 76//22
f 76//22 25//22 24//22
f 76//23 24//23 77//23
f 77//23 24//23 23//23
f 77//24 23//24 78//24
f 78//24 23//24 28//24
f 78//25 28//25 79//25
f 79//25 28//25 27//25
f 79//26 27//26 80//26
f 80//26 27//26 26//26
f 80//27 26//27 81//27
f 81//27 26//27 31//27
f 81//28 31//28 82//28
f 82//28 31//28 30//28
f 82//29 30//29 83//29
f 83//29 30//29 29//29
f 83//30 29//30 84//30
f 84//30 29//30 34//30
f 84//31 34//31 85//31
f 85//31 34//31 33//31
f 85//32 33//32 86//32
f 86//32 33//32 32//32
f 86//33 32//33 87//33
f 87//33 32//33 37//33
f 87//34 37//34 88//34
f 88//34 37//34 36//34
f 88//35 36//35 89//35
f 89//35 36//35 35//35
f 89//36 35//36 90//36
f 90//36 35//36 40//36
f 90//37 40//37 91//37
f 91//37 40//37 39//37
f 91//38 39//38 92//38
f 92//38 39//38 38//38
f 92//39 38//39 93//39
f 93//39 38//39 43//39
f 93//40 43//40 94//40
f 94//40 43//40 42//40
f 94//41 42//41 95//41
f 95//41 42//41 41//41
f 95//42 41//42 96//42
f 96//42 41//42 46//42
f 96//43 46//43 97//43
f 97//43 46//43 45//43
f 97//44 45//44 98//44
f 98//44 45//44 44//44
f 98//45 44//45 99//45
f 99//45 44//45 49//45
f 99//46 49//46 100//46
f 100//46 49//46 48//46
f 100//47 48//47 101//47
f 101//47 48//47 47//47
f 101//48 47//48 102//48
f 102//48 47//48 52//48
f 102//49 52//49 103//49
f 103//49 52//49 51//49
f 103//50 51//50 104//50
f 104//50 51//50 50//50
f 104//51 50//51 105//51
f 105//51 50//51 54//51
f 105//52 54//52 106//52
f 106//52 54//52 53//52
f 106//53 53//53 107//53
f 107//53 53//53 2//53
f 107//54 2//54 55//54
f 55//54 2//54 1//54
f 75//1 108//1 74//1
f 74//1 108//1 109//1
f 74//1 109//1 73//1
f 73//1 109//1 110//1
f 73//1 110//1 72//1
f 72//1 110//1 111//1
f 72//1 111//1 71//1
f 71//1 111//1 112//1
f 71//1 112//1 70//1
f 70//1 112//1 113//1
f 70//1 113//1 69//1
f 69//1 113//1 114//1
f 69//1 114//1 68//1
f 68//1 114//1 115//1
f 68//1 115//1 67//1
f 67//1 115//1 116//1
f 67//1 116//1 66//1
f 66//1 116//1 117//1
f 66//1 117//1 65//1
f 65//1 117//1 118//1
f 65//1 118//1 64//1
f 64//1 118//1 119//1
f 64//1 119//1 63//1
f 63//1 119//1 120//1
f 63//1 120//1 62//1
f 89//1 121//1 88//1
f 88//1 121//1 122//1
f 88//1 122//1 87//1
f 87//1 122//1 123//1
f 87//1 123//1 86//1
f 86//1 123//1 124//1
f 86//1 124//1 85//1
f 85//1 124//1 125//1
f 85//1 125//1 84//1
f 84//1 125//1 126//1
f 84//1 126//1 83//1
f 83//1 126//1 127//1
f 83//1 127//1 82//1
f 82//1 127//1 128//1
f 82//1 128//1 81//1
f 81//1 128//1 129//1
f 81//1 129//1 80//1
f 80//1 129//1 130//1
f 80//1 130//1 79//1
f 79//1 130//1 131//1
f 79//1 131//1 78//1
f 78//1 131//1 132//1
f 78//1 132//1 77//1
f 77//1 132//1 133//1
f 77//1 133//1 76//1
f 76//1 133//1 134//1
f 76//1 134//1 75//1
f 75//1 134//1 135//1
f 75//1 135//1 108//1
f 102//1 136//1 101//1
f 101//1 136//1 137//1
f 101//1 137//1 100//1
f 100//1 137//1 138//1
f 100//1 138//1 99//1
f 99//1 138//1 139//1
f 99//1 139//1 98//1
f 98//1 139//1 140//1
f 98//1 140//1 97//1
f 97//1 140//1 141//1
f 97//1 141//1 96//1
f 96//1 141//1 142//1
f 96//1 142//1 95//1
f 95//1 142//1 143//1
f 95//1 143//1 94//1
f 94//1 143//1 144//1
f 94//1 144//1 93//1
f 93//1 144//1 145//1
f 93//1 145//1 92//1
f 92//1 145//1 146//1
f 92//1 146//1 91//1
f 91//1 146//1 147//1
f 91//1 147//1 90//1
f 90//1 147//1 148//1
f 90//1 148//1 89//1
f 89//1 148//1 149//1
f 89//1 149//1 121//1
f 120//1 150//1 62//1
f 62//1 150//1 151//1
f 62//1 151//1 61//1
f 61//1 151//1 152//1
f 61//1 152//1 60//1
f 60//1 152//1 153//1
f 60//1 153//1 59//1
f 59//1 153//1 154//1
f 59//1 154//1 58//1
f 58//1 154//1 155//1
f 58//1 155//1 57//1
f 57//1 155//1 156//1
f 57//1 156//1 56//1
f 56//1 156//1 157//1
f 56//1 157//1 55//1
f 55//1 157//1 158//1
f 55//1 158//1 107//1
f 107//1 158//1 159//1
f 107//1 159//1 106//1
f 106//1 159//1 160//1
f 106//1 160//1 105//1
f 105//1 160//1 161//1
f 105//1 161//1 104//1
f 104//1 161//1 162//1
f 104//1 162//1 103//1
f 103//1 162//1 163//1
f 103//1 163//1 102//1
f 102//1 163//1 164//1
f 102//1 164//1 136//1
f 165//55 157//55 166//55
f 166//56 157//56 156//56
f 166//56 156//56 167//56
f 167//57 156//57 155//57
f 167//57 155//57 168//57
f 168//58 155//58 154//58
f 168//58 154//58 169//58
f 169//59 154//59 153//59
f 169//59 153//59 170//59
f 170//60 153//60 152//60
f 170//60 152//60 171//60
f 171//61 152//61 151//61
f 171//61 151//61 172//61
f 172//62 151//62 150//62
f 172//62 150//62 173//62
f 173//63 150//63 120//63
f 173//63 120//63 174//63
f 174//64 120//64 119//64
f 174//64 119//64 175//64
f 175//65 119//65 118//65
f 175//65 118//65 176//65
f 176//66 118//66 117//66
f 176//66 117//66 177//66
f 177//67 117//67 116//67
f 177//67 116//67 178//67
f 178//68 116//68 115//68
f 178//68 115//68 179//68
f 179//69 115//69 114//69
f 179//69 114//69 180//69
f 180//70 114//70 113//70
f 180//70 113//70 181//70
f 181//71 113//71 112//71
f 181//71 112//71 182//71
f 182//72 112//72 111//72
f 182//72 111//72 183//72
f 183//73 111//73 110//73
f 183//73 110//73 184//73
f 184//74 110//74 109//74
f 184//74 109//74 185//74
f 185//75 109//75 108//75
f 185//75 108//75 186//75
f 186//76 108//76 135//76
f 186//76 135//76 187//76
f 187//77 135//77 134//77
f 187//77 134//77 188//77
f 188//78 134//78 133//78
f 188//78 133//78 189//78
f 189//79 133//79 132//79
f 189//79 132//79 190//79
f 190//80 132//80 131//80
f 190//80 131//80 191//80
f 191//81 131//81 130//81
f 191//81 130//81 192//81
f 192//82 130//82 129//82
f 192//82 129//82 193//82
f 193//83 129//83 128//83
f 193//83 128//83 194//83
f 194//84 128//84 127//84
f 194//84 127//84 195//84
f 195//85 127//85 126//85
f 195//85 126//85 196//85
f 196//86 126//86 125//86
f 196//86 125//86 197//86
f 197//87 125//87 124//87
f 197//87 124//87 198//87
f 198//88 124//88 123//88
f 198//88 123//88 199//88
f 199//89 123//89 122//89
f 199//89 122//89 200//89
f 200//90 122//90 121//90
f 200//90 121//90 201//90
f 201//91 121//91 149//91
f 201//91 149//91 202//91
f 202//92 149//92 148//92
f 202//92 148//92 203//92
f 203//93 148//93 147//93
f 203//93 147//93 204//93
f 204//94 147//94 146//94
f 204//94 146//94 205//94
f 205//95 146//95 145//95
f 205//95 145//95 206//95
f 206//96 145//96 144//96
f 206//96 144//96 207//96
f 207//97 144//97 143//97
f 207//97 143//97 208//97
f 208//98 143//98 142//98
f 208//98 142//98 209//98
f 209//99 142//99 141//99
f 209//99 141//99 210//99
f 210//100 141//100 140//100
f 210//100 140//100 211//100
f 211//101 140//101 139//101
f 211//101 139//101 212//101
f 212//102 139//102 138//102
f 212//102 138//102 213//102
f 213//103 138//103 137//103
f 213//103 137//103 214//103
f 214//104 137//104 136//104
f 214//104 136//104 215//104
f 215//105 136//105 164//105
f 215//105 164//105 216//105
f 216//106 164//106 163//106
f 216//106 163//106 217//106
f 217//107 163//107 162//107
f 217//107 162//107 218//107
f 218//108 162//108 161//108
f 218//108 161//108 219//108
f 219//109 161//109 160//109
f 219//109 160//109 220//109
f 220//110 160//110 159//110
f 220//110 159//110 221//110
f 221//111 159//111 158//111
f 221//111 158//111 165//111
f 165//55 158//55 157//55
f 220//112 221//112 222//112
f 222//112 221//112 165//112
f 222//112 165//112 166//112
f 217//112 218//112 222//112
f 222//112 218//112 219//112
f 222//112 219//112 220//112
f 214//112 215//112 222//112
f 222//112 215//112 216//112
f 222//112 216//112 217//112
f 211//112 212//112 222//112
f 222//112 212//112 213//112
f 222//112 213//112 214//112
f 208//112 209//112 222//112
f 222//112 209//112 210//112
f 222//112 210//112 211//112
f 205//112 206//112 222//112
f 222//112 206//112 207//112
f 222//112 207//112 208//112
f 202//112 203//112 222//112
f 222//112 203//112 204//112
f 222//112 204//112 205//112
f 199//112 200//112 222//112
f 222//112 200//112 201//112
f 222//112 201//112 202//112
f 196//112 197//112 222//112
f 222//112 197//112 198//112
f 222//112 198//112 199//112
f 193//112 194//112 222//112
f 222//112 194//112 195//112
f 222//112 195//112 196//112
f 190//112 191//112 222//112
f 222//112 191//112 192//112
f 222//112 192//112 193//112
f 187//112 188//112 222//112
f 222//112 188//112 189//112
f 222//112 189//112 190//112
f 184//112 185//112 222//112
f 222//112 185//112 186//112
f 222//112 186//112 187//112
f 181//112 182//112 222//112
f 222//112 182//112 183//112
f 222//112 183//112 184//112
f 178//112 179//112 222//112
f 222//112 179//112 180//112
f 222//112 180//112 181//112
f 175//112 176//112 222//112
f 222//112 176//112 177//112
f 222//112 177//112 178//112
f 172//112 173//112 222//112
f 222//112 173//112 174//112
f 222//112 174//112 175//112
f 169//112 170//112 222//112
f 222//112 170//112 171//112
f 222//112 171//112 172//112
f 166//112 167//112 222//112
f 222//112 167//112 168//112
f 222//112 168//112 169//112
